# xmcd
# 
# Track frame offsets:
#     150
#     15982
#     25918
#     36367
#     49017
#     61561
#     75927
#     93284
#     112399
#     125535
#     151482
# 
# Disc length: 2162
# 
# Revision: 0
# Processed by: cddbd v1.5.2PL0 Copyright (c) Steve Scherf et al.
# Submitted via: fre:ac v1.0.27
# 
DISCID=7d08700b
DTITLE=Mississippi Rail Company - Coal Black Train
DYEAR=2012
DGENRE=Blues
TTITLE0=Six Feet in the Ground
TTITLE1=Dear Annabelle
TTITLE2=The Best Goodbye
TTITLE3=One More Cigarette
TTITLE4=Mojo Hand
TTITLE5=Can I Be Your Husband?
TTITLE6=Kill the Devil
TTITLE7=Whiskey Drink
TTITLE8=No More
TTITLE9=Coal Black Train
TTITLE10=Goodbye, Carolina
EXTD=
EXTT0=
EXTT1=
EXTT2=
EXTT3=
EXTT4=
EXTT5=
EXTT6=
EXTT7=
EXTT8=
EXTT9=
EXTT10=
PLAYORDER=
